# AST/ASF file generated using VICON BodyLanguage
# -----------------------------------------------
:version 1.10
:name VICON
:units
  mass 1.0
  length 0.45
  angle deg
:documentation
   .ast/.asf automatically generated from VICON data using
   VICON BodyBuilder and BodyLanguage model FoxedUp or BRILLIANT.MOD
:root
   order TX TY TZ RX RY RZ
   axis XYZ
   position 0 0 0  
   orientation 0 0 0 
:bonedata
  begin
     id 1 
     name lhipjoint
     direction 0.57768 -0.667037 0.470475 
     length 2.36008 
     axis 0 0 0  XYZ
  end
  begin
     id 2 
     name lfemur
     direction 0.34202 -0.939693 0  
     length 6.97235  
     axis 0 0 20  XYZ
    dof rx ry rz
    limits (-160.0 20.0)
           (-70.0 70.0)
           (-60.0 70.0)
  end
  begin
     id 3 
     name ltibia
     direction 0.34202 -0.939693 0   
     length 6.93428   
     axis 0 0 20   XYZ
    dof rx
    limits (-10.0 170.0)
  end
  begin
     id 4 
     name lfoot
     direction 0.133018 -0.365463 0.921272   
     length 2.18603   
     axis -90 7.62852e-016 20   XYZ
    dof rx rz
    limits (-45.0 90.0)
           (-70.0 20.0)
  end
  begin
     id 5 
     name ltoes
     direction 1.53519e-011 -4.22055e-011 1   
     length 1.07924   
     axis -90 7.62852e-016 20   XYZ
    dof rx
    limits (-90.0 20.0)
  end
  begin
     id 6 
     name rhipjoint
     direction -0.577712 -0.667019 0.470462   
     length 2.36015  
     axis 0 0 0  XYZ 
  end
  begin
     id 7 
     name rfemur
     direction -0.34202 -0.939693 0   
     length 6.71195   
     axis 0 0 -20   XYZ
    dof rx ry rz
    limits (-160.0 20.0)
           (-70.0 70.0)
           (-70.0 60.0)
  end
  begin
     id 8 
     name rtibia
     direction -0.34202 -0.939693 0   
     length 7.04592   
     axis 0 0 -20   XYZ
    dof rx
    limits (-10.0 170.0)
 end
 begin
     id 9 
     name rfoot
     direction -0.113796 -0.312651 0.943027   
     length 2.03846  
     axis -90 -7.62852e-016 -20   XYZ
    dof rx rz
    limits (-45.0 90.0)
           (-20.0 70.0)
  end
  begin
     id 10 
     name rtoes
     direction -1.53586e-011 -4.218e-011 1   
     length 1.01562   
     axis -90 -7.62852e-016 -20   XYZ
    dof rx
    limits (-90.0 20.0)
  end
  begin
     id 11 
     name lowerback
     direction -0.0417299 0.991937 -0.119667   
     length 2.05257   
     axis 0 0 0   XYZ
    dof rx ry rz
    limits (-20.0 45.0)
           (-30.0 30.0)
           (-30.0 30.0)
  end
  begin
     id 12 
     name upperback
     direction -0.00017666 0.999999 0.00105178   
     length 2.05693   
     axis 0 0 0   XYZ
    dof rx ry rz
    limits (-20.0 45.0)
           (-30.0 30.0)
           (-30.0 30.0)
  end
  begin
     id 13 
     name thorax
     direction 0.0185169 0.998203 0.0569866   
     length 2.0932   
     axis 0 0 0   XYZ
    dof rx ry rz
    limits (-20.0 45.0)
           (-30.0 30.0)
           (-30.0 30.0)
  end
  begin
     id 14 
     name lowerneck
     direction -0.0212406 0.982645 0.184277   
     length 1.72509   
     axis 0 0 0   XYZ
    dof rx ry rz
    limits (-20.0 45.0)
           (-30.0 30.0)
           (-30.0 30.0)
  end
  begin
     id 15 
     name upperneck
     direction 0.00528579 0.965323 -0.261004   
     length 1.76294   
     axis 0 0 0   XYZ
    dof rx ry rz
    limits (-20.0 45.0)
           (-30.0 30.0)
           (-30.0 30.0)
  end
  begin
     id 16
     name head
     direction 0.00695421 0.994078 -0.108445  
     length 1.78678  
     axis 0 0 0   XYZ
    dof rx ry rz
    limits (-20.0 45.0)
           (-30.0 30.0)
           (-30.0 30.0)
  end
  begin
     id 17 
     name lclavicle
     direction 0.97277 0.211305 -0.095232  
     length 3.84823  
     axis 0 0 0   XYZ
    dof ry rz
    limits (-20.0 10.0)
           (0.0 20.0)
  end
  begin
     id 18 
     name lhumerus
     direction 1 -4.48957e-011 -1.98313e-027   
     length 4.97185   
     axis 180 -30 -90   XYZ
    dof rx ry rz
    limits (-60.0 90.0)
           (-90.0 90.0)
           (-90.0 90.0)
  end
  begin
     id 19
     name lradius
     direction 1 -4.4898e-011 7.31063e-027   
     length 3.35811   
     axis 180 -30 -90   XYZ
    dof rx
    limits (-10.0 170.0)
  end
  begin
     id 20
     name lwrist
     direction 1 -4.48938e-011 9.95048e-027   
     length 1.67905   
     axis -8.75986e-015 90 90   XYZ
    dof ry
    limits (-180.0 0.0)
 end
  begin
     id 21 
     name lhand
     direction 1 -4.4901e-011 1.9901e-026   
     length 0.622776   
     axis -1.26985e-014 90 90   XYZ
    dof rx rz
    limits (-90.0 90.0)
           (-45.0 45.0)
  end
  begin
     id 22 
     name lfingers
     direction 1 -4.48961e-011 3.98019e-026   
     length 0.502098   
     axis -2.5397e-014 90 90   XYZ
    dof rx
    limits (0.0 90.0)
  end
  begin
     id 23
     name lthumb
     direction 0.707107 -6.34933e-011 0.707107   
     length 0.720915   
     axis -90 45 2.85299e-015   XYZ
    dof rx rz
    limits (-45.0 45.0)
           (-45.0 45.0)
  end
  begin
     id 24 
     name rclavicle
     direction -0.990867 0.133739 -0.0172226   
     length 3.78845  
     axis 0 0 0   XYZ 
    dof ry rz
    limits (-10.0 20.0)
           (-20.0 0.0)
  end
  begin
     id 25 
     name rhumerus
     direction -1 -4.48972e-011 -1.99267e-027  
     length 4.96493   
     axis 180 30 90   XYZ
    dof rx ry rz
    limits (-90.0 60.0)
           (-90.0 90.0)
           (-90.0 90.0)
  end
  begin
     id 26 
     name rradius
     direction -1 -4.48969e-011 8.96093e-027   
     length 3.34929   
     axis 180 30 90   XYZ
    dof rx
    limits (-10.0 170.0)
  end
  begin
     id 27 
     name rwrist
     direction -1 -4.48953e-011 9.95048e-027   
     length 1.67464   
     axis -8.75986e-015 -90 -90   XYZ
    dof ry
    limits (-180.0 0.0)
  end
  begin
     id 28
     name rhand
     direction -1 -4.49001e-011 1.9901e-026   
     length 0.638041   
     axis -1.26985e-014 -90 -90   XYZ
    dof rx rz
    limits (-90.0 90.0)
           (-45.0 45.0)
  end
  begin
     id 29
     name rfingers
     direction -1 -4.48967e-011 3.98019e-026   
     length 0.514405   
     axis -2.5397e-014 -90 -90   XYZ
    dof rx
    limits (0.0 90.0)
  end
  begin
     id 30
     name rthumb
     direction -0.707107 -6.34904e-011 0.707107   
     length 0.738586   
     axis -90 -45 -2.85299e-015   XYZ
    dof rx rz
    limits (-45.0 45.0)
           (-45.0 45.0)
  end
:hierarchy
  begin
    root lhipjoint rhipjoint lowerback
    lhipjoint lfemur
    lfemur ltibia
    ltibia lfoot
    lfoot ltoes
    rhipjoint rfemur
    rfemur rtibia
    rtibia rfoot
    rfoot rtoes
    lowerback upperback
    upperback thorax
    thorax lowerneck lclavicle rclavicle
    lowerneck upperneck
    upperneck head
    lclavicle lhumerus
    lhumerus lradius
    lradius lwrist
    lwrist lhand lthumb
    lhand lfingers
    rclavicle rhumerus
    rhumerus rradius
    rradius rwrist
    rwrist rhand rthumb
    rhand rfingers
  end

#!OML:ASF E:\Mandelcareful walks\Project 1\Capture day 1\Session 1\Subject1.ASF
:FULLY-SPECIFIED
:DEGREES
108
root -23.9117 16.424 -0.557386 177.348 77.0696 171.765
lowerback -6.92974 1.80311 -3.18384
upperback 2.20302 2.6883 0.358119
thorax 6.02678 1.19846 2.48131
lowerneck -14.6679 8.82189 5.31494
upperneck 31.4938 14.0063 -3.69384
head 13.7783 6.65614 0.035406
rclavicle -7.65321e-015 4.57205e-015
rhumerus -30.3594 -4.70111 -83.8753
rradius 29.6275
rwrist -8.86564
rhand -11.3415 -29.2127
rfingers 7.12502
rthumb 14.6915 -58.6722
lclavicle -7.65321e-015 4.57205e-015
lhumerus -27.9069 7.04682 88.608
lradius 25.8032
lwrist 5.63282
lhand -21.7133 -13.5195
lfingers 7.12502
lthumb 4.68558 16.4087
rfemur -5.47508 3.31661 12.3222
rtibia 24.5243
rfoot -33.9592 -30.4717
rtoes 11.6183
lfemur -12.7476 -8.84205 -14.2722
ltibia 29.6961
lfoot -30.5923 16.7517
ltoes 19.8862
109
root -23.9228 16.4261 -0.556906 177.459 77.6875 171.969
lowerback -6.72373 1.81655 -3.17505
upperback 2.37866 2.69834 0.436884
thorax 6.09048 1.19938 2.55572
lowerneck -15.5198 7.61875 3.93557
upperneck 32.0606 12.3278 -2.8625
head 13.9321 5.8461 0.334424
rclavicle 3.62037e-014 1.78906e-015
rhumerus -29.8557 -4.25929 -83.9793
rradius 30.0524
rwrist -9.51879
rhand -10.8482 -30.3307
rfingers 7.12502
rthumb 15.1667 -59.7549
lclavicle 3.62037e-014 1.78906e-015
lhumerus -27.8384 7.5611 88.5245
lradius 25.8586
lwrist 5.60832
lhand -21.7426 -13.6778
lfingers 7.12502
lthumb 4.65728 16.251
rfemur -5.62775 3.57903 12.3812
rtibia 24.5644
rfoot -33.5686 -30.2703
rtoes 11.502
lfemur -12.575 -8.5014 -14.1843
ltibia 29.6462
lfoot -30.5353 17.1725
ltoes 20.3611
110
root -23.9484 16.429 -0.567677 177.923 78.287 172.486
lowerback -6.2919 1.818 -2.8597
upperback 2.4314 2.65918 0.445696
thorax 5.91432 1.19608 2.36706
lowerneck -15.917 6.41576 2.76008
upperneck 32.3403 10.6596 -2.2257
head 13.9397 5.0573 0.506473
rclavicle 5.93372e-014 -1.78906e-014
rhumerus -29.5095 -3.8334 -84.1508
rradius 30.319
rwrist -9.9545
rhand -10.6164 -30.4533
rfingers 7.12502
rthumb 15.39 -59.8605
lclavicle 5.93372e-014 -1.78906e-014
lhumerus -28.0295 7.81043 88.3845
lradius 26.0141
lwrist 5.78581
lhand -21.9148 -13.8507
lfingers 7.12502
lthumb 4.49104 16.0817
rfemur -5.89921 3.25448 12.3659
rtibia 24.5744
rfoot -32.5924 -29.7932
rtoes 10.9759
lfemur -12.5156 -8.02698 -14.1056
ltibia 29.6384
lfoot -30.5441 17.5034
ltoes 20.9976
111
root -23.977 16.4268 -0.57793 177.717 78.5561 172.525
lowerback -5.58465 1.67536 -2.72792
upperback 2.54601 2.43877 0.475364
thorax 5.64745 1.0974 2.27588
lowerneck -16.1216 5.265 1.62069
upperneck 32.4541 9.10442 -1.72696
head 13.8862 4.30751 0.634181
rclavicle -2.51463e-014 -1.43125e-014
rhumerus -29.1993 -3.23346 -84.3452
rradius 30.549
rwrist -10.2847
rhand -10.669 -30.1493
rfingers 7.12502
rthumb 15.3393 -59.5604
lclavicle -2.51463e-014 -1.43125e-014
lhumerus -28.2213 8.07334 88.2897
lradius 26.103
lwrist 5.84621
lhand -22.0067 -13.9876
lfingers 7.12502
lthumb 4.40227 15.9467
rfemur -5.83578 3.08137 12.2976
rtibia 24.6014
rfoot -31.9669 -29.6882
rtoes 10.2055
lfemur -12.2928 -7.57195 -14.1675
ltibia 29.6352
lfoot -30.4379 17.4669
ltoes 20.8874
112
root -24.006 16.43 -0.589662 177.278 79.0014 172.238
lowerback -4.97992 1.54823 -2.73574
upperback 2.70535 2.25183 0.582458
thorax 5.47562 1.00606 2.35516
lowerneck -16.2274 4.20663 0.308877
upperneck 32.4 7.7082 -1.16973
head 13.7622 3.61276 0.839516
rclavicle -2.89232e-014 3.18055e-015
rhumerus -28.9028 -2.43511 -84.4485
rradius 31.0287
rwrist -10.6577
rhand -10.6038 -29.9793
rfingers 7.12502
rthumb 15.4022 -59.3855
lclavicle -2.89232e-014 3.18055e-015
lhumerus -28.3674 8.5469 88.3206
lradius 26.1918
lwrist 5.67632
lhand -22.059 -14.0942
lfingers 7.12502
lthumb 4.35175 15.8411
rfemur -5.92506 3.06598 12.1594
rtibia 24.6314
rfoot -31.4329 -29.4957
rtoes 9.69222
lfemur -12.1366 -7.35894 -14.2828
ltibia 29.6183
lfoot -30.457 17.6862
ltoes 20.6167
113
root -24.0315 16.4324 -0.591218 176.189 79.6063 171.29
lowerback -4.4367 1.48409 -3.07267
upperback 2.95288 2.17478 0.728456
thorax 5.4133 0.953458 2.6756
lowerneck -16.3694 3.26901 -0.784364
upperneck 32.2291 6.4772 -0.788749
head 13.6475 2.98737 0.969981
rclavicle -3.04638e-014 1.27222e-014
rhumerus -28.5627 -1.71606 -84.4195
rradius 31.6186
rwrist -11.0435
rhand -10.1533 -29.2139
rfingers 7.12502
rthumb 15.8361 -58.5862
lclavicle -3.04638e-014 1.27222e-014
lhumerus -28.4363 8.65362 88.5411
lradius 26.3815
lwrist 5.71977
lhand -22.317 -14.0837
lfingers 7.12502
lthumb 4.10266 15.8565
rfemur -6.04885 3.23906 11.9596
rtibia 24.6805
rfoot -31.1182 -29.2369
rtoes 9.33601
lfemur -11.8963 -7.30188 -14.4494
ltibia 29.6041
lfoot -30.5898 17.9913
ltoes 20.9836
114
root -24.068 16.436 -0.600688 175.39 80.1893 170.505
lowerback -3.83096 1.41782 -3.19697
upperback 3.1563 2.07847 0.822002
thorax 5.28024 0.902203 2.81855
lowerneck -16.5983 2.44467 -1.49527
upperneck 32.0759 5.39753 -0.674989
head 13.6055 2.43374 0.960485
rclavicle 5.46658e-016 -3.57812e-015
rhumerus -28.1994 -0.949746 -84.4214
rradius 32.2851
rwrist -11.5532
rhand -9.62953 -28.3522
rfingers 7.12502
rthumb 16.3404 -57.6838
lclavicle 5.46658e-016 -3.57812e-015
lhumerus -28.5085 8.45163 88.8073
lradius 26.5797
lwrist 6.08021
lhand -22.6501 -14.0503
lfingers 7.12502
lthumb 3.78095 15.8959
rfemur -6.39659 2.88209 11.7077
rtibia 24.7506
rfoot -30.3388 -28.6477
rtoes 8.72896
lfemur -11.8512 -7.58302 -14.5778
ltibia 29.5511
lfoot -30.8051 18.6165
ltoes 20.6671
115
root -24.1035 16.444 -0.605256 174.675 80.6862 169.774
lowerback -3.19854 1.26725 -3.38155
upperback 3.3402 1.87044 0.927362
thorax 5.11867 0.793978 2.99987
lowerneck -16.6133 1.77536 -1.98867
upperneck 31.7689 4.48933 -0.629069
head 13.4682 1.97578 0.907639
rclavicle 3.48867e-014 9.93923e-015
rhumerus -27.8796 0.141316 -84.553
rradius 33.0985
rwrist -12.2057
rhand -10.0568 -28.2487
rfingers 7.12502
rthumb 15.9289 -57.6136
lclavicle 3.48867e-014 9.93923e-015
lhumerus -28.7198 8.04854 89.1107
lradius 26.831
lwrist 6.89552
lhand -22.9281 -14.0968
lfingers 7.12502
lthumb 3.51257 15.854
rfemur -6.71371 2.61169 11.5365
rtibia 24.8315
rfoot -29.7492 -28.1428
rtoes 8.38779
lfemur -11.9172 -6.30962 -14.6646
ltibia 29.449
lfoot -30.2415 18.3158
ltoes 19.6203
116
root -24.1357 16.451 -0.605763 173.415 81.3156 168.586
lowerback -2.53853 1.18104 -3.69563
upperback 3.6082 1.75663 1.0188
thorax 5.02178 0.726124 3.2497
lowerneck -16.8386 1.11676 -2.565
upperneck 31.6119 3.58761 -0.409498
head 13.4414 1.52941 0.945856
rclavicle 1.73937e-014 -2.38542e-014
rhumerus -27.3962 1.08134 -84.6254
rradius 33.8543
rwrist -13.0917
rhand -10.7012 -28.5767
rfingers 7.12502
rthumb 15.3083 -57.9901
lclavicle 1.73937e-014 -2.38542e-014
lhumerus -28.7801 7.37641 89.4533
lradius 27.1236
lwrist 7.61315
lhand -23.2987 -13.8597
lfingers 7.12502
lthumb 3.15465 16.0967
rfemur -6.95829 2.40011 11.3394
rtibia 24.8885
rfoot -29.1806 -27.5913
rtoes 8.17033
lfemur -11.7814 -5.93782 -14.8091
ltibia 29.3659
lfoot -30.2466 18.427
ltoes 18.7835
